<?xml version="1.0" encoding="utf-8"?>
<!-- Generator: Adobe Illustrator 26.0.2, SVG Export Plug-In . SVG Version: 6.00 Build 0)  -->
<svg version="1.1" id="Layer_1" xmlns="http://www.w3.org/2000/svg" xmlns:xlink="http://www.w3.org/1999/xlink" x="0px" y="0px"
	 viewBox="0 0 1200 1200" style="enable-background:new 0 0 1200 1200;" xml:space="preserve">
<style type="text/css">
	.st0{fill:#FBB040;}
	.st1{fill:none;stroke:#231F20;stroke-width:40;stroke-linecap:round;stroke-linejoin:round;stroke-miterlimit:10;}
	.st2{fill:none;stroke:#231F20;stroke-width:28;stroke-linecap:round;stroke-linejoin:round;stroke-miterlimit:10;}
</style>
<circle class="st0" cx="600.38" cy="599.88" r="600"/>
<rect x="178.21" y="387.6" transform="matrix(0.9915 -0.1299 0.1299 0.9915 -72.8317 83.0656)" class="st1" width="844.34" height="424.56"/>
<path class="st1" d="M961.22,496.68l14.4,109.96c-48.18,6.31-82.12,50.48-75.81,98.66l-553.71,72.54
	c-6.31-48.18-50.48-82.12-98.66-75.81c-2.66,0.35-5.28,0.81-7.85,1.39l-14.5-110.67c2.64-0.1,5.29-0.33,7.95-0.68
	c48.18-6.31,82.12-50.48,75.81-98.66l553.71-72.54C868.87,469.05,913.04,502.99,961.22,496.68z"/>
<path class="st2" d="M632.34,537.01c-22.45-5.39-60-18.57-79.51,19.85c-7.56,14.89-2.4,29.05,8.23,38.61
	c25.67,23.06,47.24-3.08,72.9,9.98c25.28,12.86,25.74,39.09,10.35,52.57c-21.92,19.2-66.63,23.76-90.72,5.52"/>
<line class="st2" x1="584.1" y1="494.24" x2="588.87" y2="530.7"/>
<line class="st2" x1="611.59" y1="704.15" x2="607.64" y2="673.93"/>
</svg>
