<?xml version="1.0" encoding="utf-8"?>
<!-- Generator: Adobe Illustrator 26.0.2, SVG Export Plug-In . SVG Version: 6.00 Build 0)  -->
<svg version="1.1" id="Layer_1" xmlns="http://www.w3.org/2000/svg" xmlns:xlink="http://www.w3.org/1999/xlink" x="0px" y="0px"
	 viewBox="0 0 1200 1200" style="enable-background:new 0 0 1200 1200;" xml:space="preserve">
<style type="text/css">
	.st0{fill:#FBB040;}
	.st1{fill:#FBB040;stroke:#231F20;stroke-width:40;stroke-linecap:round;stroke-linejoin:round;stroke-miterlimit:10;}
	.st2{fill:none;stroke:#231F20;stroke-width:40;stroke-linecap:round;stroke-linejoin:round;stroke-miterlimit:10;}
</style>
<circle class="st0" cx="600" cy="600" r="600"/>
<path class="st1" d="M241.46,975.15c12.36-45.74,45.44-143.67,134.33-233.05c94.65-95.17,200.04-127.81,246-139.18"/>
<path class="st2" d="M805.37,749.03c68.18-52.88,108.86-122.59,122.65-146.08c101.06-172.14,46.35-355.14,32.21-398.16
	c-12.99,32.45-49.31,109.1-136.51,162.59c-102.36,62.79-208.16-16.12-319.24,34.37C429.86,435.65,391.7,553.64,371.97,600"/>
<path class="st2" d="M408.75,731.24c26.26,21.7,103.96,80.23,211.04,82.46c31.33,0.65,60.27-3.92,86.85-12.16"/>
<line class="st2" x1="544.83" y1="701.76" x2="679.84" y2="730.89"/>
<line class="st2" x1="679.84" y1="642.02" x2="816.72" y2="649.97"/>
<line class="st2" x1="748.28" y1="565.02" x2="901.75" y2="547.18"/>
<line class="st2" x1="448.08" y1="594.89" x2="490.38" y2="494.66"/>
<line class="st2" x1="554.9" y1="556.1" x2="612.34" y2="457.38"/>
</svg>
