<?xml version="1.0" encoding="utf-8"?>
<!-- Generator: Adobe Illustrator 26.0.2, SVG Export Plug-In . SVG Version: 6.00 Build 0)  -->
<svg version="1.1" id="Layer_1" xmlns="http://www.w3.org/2000/svg" xmlns:xlink="http://www.w3.org/1999/xlink" x="0px" y="0px"
	 viewBox="0 0 1200 1200" style="enable-background:new 0 0 1200 1200;" xml:space="preserve">
<style type="text/css">
	.st0{fill:#FBB040;stroke:#231F20;stroke-width:0.25;stroke-miterlimit:10;}
	.st1{fill:none;stroke:#231F20;stroke-width:40;stroke-linecap:round;stroke-linejoin:round;stroke-miterlimit:10;}
</style>
<circle class="st0" cx="600.38" cy="599.88" r="600"/>
<path class="st1" d="M543.08,275.16l93.5,185.71c19.48,38.68-13.78,77.49-52.73,61.53l-186.88-76.56
	c-21.93-8.98-33.44-35.04-24.41-55.59c24.03-54.71,62.94-101.62,114.81-134.22C505.95,244.34,532.08,253.32,543.08,275.16z"/>
<path class="st1" d="M774.85,275.08l-54.64,185.57c-11.4,38.73-64.22,38.77-83.71,0.07l-93.42-185.55
	c-11-21.84-1.91-46.71,19.38-53.02c59.3-17.58,122.18-16.69,182.11,0.01C767.11,228.42,781.27,253.29,774.85,275.08z"/>
<path class="st1" d="M980.98,685.1c21.95,8.99,33.47,35.1,24.39,55.64c-29.4,66.53-80.82,121.46-150.83,153.05l-0.26,0.12
	L741.89,670.25c-19.44-38.68,13.82-77.44,52.75-61.49L980.98,685.1z"/>
<path class="st1" d="M742.09,670.66l92.78,184.64c10.98,21.84,1.88,46.7-19.41,52.99c-59.01,17.44-121.53,16.59-181.17,0.1
	c-22.57-6.24-36.75-31.13-30.33-52.95l54.4-184.76C669.77,631.94,722.63,631.92,742.09,670.66z"/>
<path class="st1" d="M991.47,428.76l0.21,0.42l-205.86,92.88c-35.62,16.07-77.01-22.68-65.61-61.41l54.62-185.5
	c6.42-21.81,30.63-30.94,51.61-19.28C894.28,293.55,953.22,352.8,991.47,428.76z"/>
<path class="st1" d="M1009.88,471.09c23.31,63.19,29.17,128.08,19.46,188.25c-3.67,22.73-26.36,34.77-48.28,25.79l-185.98-76.19
	c-39-15.98-44.75-70.86-9.12-86.94l170.16-76.77C976.23,436.15,1001.46,448.28,1009.88,471.09z"/>
<path class="st1" d="M658.44,670.43l-54.5,185.09c-6.42,21.79-30.57,30.91-51.55,19.32c-55.71-30.8-105.44-76.13-142.7-133.3
	c-13.4-20.57-7.45-46.75,12.68-55.81L592.87,609C628.48,592.97,669.84,631.72,658.44,670.43z"/>
<path class="st1" d="M583.41,522.22c39.02,15.98,44.75,70.9,9.08,86.95L386.8,701.73l-0.07-0.13
	c-38.19-75.85-49.71-156.35-37.99-229.89c3.63-22.77,26.34-34.84,48.29-25.85L583.41,522.22z"/>
<ellipse transform="matrix(0.8015 -0.598 0.598 0.8015 -201.4002 524.468)" class="st1" cx="689.31" cy="565.6" rx="330.17" ry="369.3"/>
<path class="st1" d="M520.24,238.67c-176.22,77.68-287.95,245.34-293.3,367.89c-3.97,91.05,15.4,158.8,63.57,227.61
	c57.11,81.58,130.31,117.55,212.47,131.95c82.26,14.41,143.24,0.01,206.64-17.35c99.49-27.24,175.45-74.18,217.85-101.03"/>
</svg>
